<svg id="Layer_1" data-name="Layer 1" xmlns="http://www.w3.org/2000/svg" viewBox="0 0 1429.43 515.97"><defs><style>.cls-1{fill:#8dc63f;}.cls-2{fill:#fff;}.cls-3{fill:#6d6e71;}</style></defs><title>Artboard 1</title><circle class="cls-1" cx="278.5" cy="257.53" r="220"/><rect class="cls-2" x="141.94" y="356.04" width="269.13" height="9.67"/><polygon class="cls-2" points="411.07 233.14 398.72 233.14 276.5 112.84 153.37 234.06 153.37 297.63 142.86 297.63 142.86 233.14 276.5 100.88 411.07 233.14"/><path class="cls-3" d="M574.44,267.25v48.19h-8.71V208.87h36.11q17.13,0,26.29,7.51t9.15,21.94a25.1,25.1,0,0,1-4.9,15.2,27.88,27.88,0,0,1-13.85,9.77q9.9,2.49,14.25,8.9t4.36,16.08v10a31.54,31.54,0,0,0,1.17,8.94,13.82,13.82,0,0,0,3.88,6.44v1.76h-8.93a14.58,14.58,0,0,1-3.81-7.4,43.3,43.3,0,0,1-1.1-9.88v-9.75q0-9.81-6.34-15.49t-17.68-5.67Zm0-7.47h26.3q14.41,0,21.09-5.82t6.67-15.71q0-10.56-6.63-16.23t-20-5.68h-27.4Z"/><path class="cls-3" d="M724.73,263.81H673.39V308h58.82v7.47H664.68V208.8h67.16v7.47H673.39v40.06h51.34Z"/><path class="cls-3" d="M808.38,285.71H759.52l-11,29.73h-9.08L780,208.8h8.28l40.21,106.64h-9.09Zm-45.93-7.84h43.07l-21.24-57.72h-.44Z"/><path class="cls-3" d="M853.57,308H906.3v7.47H844.78V208.8h8.79Z"/><path class="cls-1" d="M1040.63,315.44H1022.9V270H975.15v45.48h-17.8V208.8h17.8v46.88h47.75V208.8h17.73Z"/><path class="cls-1" d="M1147.12,271.72q0,19.54-12.26,32.41T1103,317q-19.18,0-31.16-12.85t-12-32.41V252.53q0-19.49,12-32.38T1103,207.26q19.55,0,31.86,12.89t12.3,32.38Zm-17.72-19.34q0-13.33-7.14-21.9t-19.3-8.57q-11.71,0-18.53,8.57t-6.81,21.9v19.34q0,13.47,6.81,22.08t18.6,8.61q12.24,0,19.3-8.58t7.07-22.11Z"/><path class="cls-1" d="M1189.46,208.8l30.69,82h.43l30.77-82h23.07V315.44h-17.8V279.11l1.76-46.21-.44-.07-31.64,82.61h-11.94l-31.5-82.4-.43.08,1.75,46v36.33h-17.79V208.8Z"/><path class="cls-1" d="M1362.23,267.47h-46.65v33.69h54.13v14.28h-71.93V208.8h71.41v14.28h-53.61v30.11h46.65Z"/><path class="cls-3" d="M871.06,356.77h-8.7v6.28h10.09v2.66h-13.4V345.84h13.3v2.66h-10v5.61h8.7Z"/><path class="cls-3" d="M887.42,360.59a2.56,2.56,0,0,0-.92-2,8.54,8.54,0,0,0-3.26-1.41,14,14,0,0,1-5.13-2.32,4.61,4.61,0,0,1-1.79-3.77,4.82,4.82,0,0,1,2-4,8,8,0,0,1,5.12-1.56,7.61,7.61,0,0,1,5.26,1.77,5.25,5.25,0,0,1,1.92,4.24l0,.08H887.4a3.19,3.19,0,0,0-1-2.48,4.23,4.23,0,0,0-3-.94,4.31,4.31,0,0,0-2.79.79,2.48,2.48,0,0,0-1,2,2.24,2.24,0,0,0,1.05,1.88,11.75,11.75,0,0,0,3.5,1.41,11.76,11.76,0,0,1,4.88,2.38,5,5,0,0,1,1.66,3.86,4.65,4.65,0,0,1-2,3.95,8.59,8.59,0,0,1-5.22,1.47,9.17,9.17,0,0,1-5.46-1.66,5.06,5.06,0,0,1-2.28-4.52l0-.08H879a3.12,3.12,0,0,0,1.25,2.71,5.57,5.57,0,0,0,3.27.89,4.82,4.82,0,0,0,2.86-.74A2.33,2.33,0,0,0,887.42,360.59Z"/><path class="cls-3" d="M909.21,348.5h-6v17.21h-3.32V348.5h-6v-2.66h15.33Z"/><path class="cls-3" d="M922.53,361.07h-7.78l-1.58,4.64h-3.36l7.3-19.87h3.14l7.23,19.87H924.1Zm-6.82-2.77h5.88l-2.88-8.49h-.08Z"/><path class="cls-3" d="M944.76,348.5h-6v17.21h-3.32V348.5h-6v-2.66h15.33Z"/><path class="cls-3" d="M960.76,356.77h-8.69v6.28h10.09v2.66H948.75V345.84h13.31v2.66h-10v5.61h8.69Z"/><path class="cls-3" d="M977.12,360.59a2.56,2.56,0,0,0-.92-2,8.47,8.47,0,0,0-3.26-1.41,13.89,13.89,0,0,1-5.12-2.32,4.59,4.59,0,0,1-1.8-3.77,4.84,4.84,0,0,1,2-4,8,8,0,0,1,5.13-1.56,7.63,7.63,0,0,1,5.26,1.77,5.31,5.31,0,0,1,1.92,4.24l0,.08h-3.18a3.22,3.22,0,0,0-1-2.48,4.24,4.24,0,0,0-3-.94,4.31,4.31,0,0,0-2.79.79,2.49,2.49,0,0,0-1,2,2.23,2.23,0,0,0,1.06,1.88,11.52,11.52,0,0,0,3.5,1.41,11.72,11.72,0,0,1,4.87,2.38,5,5,0,0,1,1.67,3.86,4.63,4.63,0,0,1-2,3.95,8.55,8.55,0,0,1-5.22,1.47,9.21,9.21,0,0,1-5.46-1.66,5.1,5.1,0,0,1-2.28-4.52l0-.08h3.19a3.11,3.11,0,0,0,1.26,2.71,5.54,5.54,0,0,0,3.26.89,4.87,4.87,0,0,0,2.87-.74A2.35,2.35,0,0,0,977.12,360.59Z"/><path class="cls-3" d="M1007.27,348.5h-6v17.21H998V348.5h-6v-2.66h15.33Z"/><path class="cls-3" d="M1026.78,365.71h-3.3v-8.47h-8.9v8.47h-3.32V345.84h3.32v8.74h8.9v-8.74h3.3Z"/><path class="cls-3" d="M1043.3,361.07h-7.78l-1.58,4.64h-3.36l7.3-19.87H1041l7.22,19.87h-3.37Zm-6.82-2.77h5.88l-2.88-8.49h-.08Z"/><path class="cls-3" d="M1065.53,348.5h-6v17.21h-3.31V348.5h-6v-2.66h15.33Z"/><path class="cls-3" d="M1082.18,345.84l5.72,15.29h.08l5.73-15.29h4.3v19.87h-3.31v-6.77l.32-8.61h-.08l-5.89,15.39h-2.23L1081,350.36h-.08l.33,8.57v6.77h-3.32V345.84Z"/><path class="cls-3" d="M1114.53,361.07h-7.78l-1.58,4.64h-3.36l7.3-19.87h3.14l7.23,19.87h-3.38Zm-6.82-2.77h5.88l-2.88-8.49h-.08Z"/><path class="cls-3" d="M1128.79,357.12h-2.29v8.59h-3.32V345.84h3.32v8.42h1.89l6.24-8.42h3.93l-7.23,9.49,7.79,10.38h-4Z"/><path class="cls-3" d="M1154.61,356.77h-8.7v6.28H1156v2.66h-13.41V345.84h13.31v2.66h-10v5.61h8.7Z"/><path class="cls-3" d="M1179.32,361.07h-7.78l-1.58,4.64h-3.36l7.3-19.87H1177l7.22,19.87h-3.37Zm-6.82-2.77h5.88l-2.88-8.49h-.08Z"/><path class="cls-3" d="M1196.33,365.71V345.84h6.44a8.35,8.35,0,0,1,6.15,2.36,8.22,8.22,0,0,1,2.37,6.08v3a8.19,8.19,0,0,1-2.37,6.08,8.38,8.38,0,0,1-6.15,2.34Zm3.32-17.21v14.55h3a4.88,4.88,0,0,0,3.88-1.61,6.05,6.05,0,0,0,1.41-4.15v-3.05a6,6,0,0,0-1.41-4.13,4.91,4.91,0,0,0-3.88-1.61Z"/><path class="cls-3" d="M1219.61,365.71h-3.32V345.84h3.32Z"/><path class="cls-3" d="M1237.56,357.24h-8.71v8.47h-3.32V345.84H1239v2.66h-10.1v6.08h8.71Z"/><path class="cls-3" d="M1255.17,357.24h-8.7v8.47h-3.32V345.84h13.42v2.66h-10.1v6.08h8.7Z"/><path class="cls-3" d="M1272.77,356.77h-8.69v6.28h10.09v2.66h-13.41V345.84h13.31v2.66h-10v5.61h8.69Z"/><path class="cls-3" d="M1281.68,357.47v8.24h-3.32V345.84h7.35a7.85,7.85,0,0,1,5.14,1.5,5.25,5.25,0,0,1,1.82,4.29,4.43,4.43,0,0,1-.8,2.65,5.43,5.43,0,0,1-2.33,1.78,4.2,4.2,0,0,1,2.42,1.74,5.64,5.64,0,0,1,.73,3v1.66a6.89,6.89,0,0,0,.22,1.7,2.38,2.38,0,0,0,.74,1.27v.31h-3.41a2.21,2.21,0,0,1-.71-1.42,12.23,12.23,0,0,1-.15-1.89v-1.6a3.31,3.31,0,0,0-.88-2.43,3.18,3.18,0,0,0-2.4-.9Zm0-2.66h3.85a4.5,4.5,0,0,0,2.91-.77,2.84,2.84,0,0,0,.91-2.33,3.07,3.07,0,0,0-.9-2.35,3.86,3.86,0,0,0-2.74-.86h-4Z"/><path class="cls-3" d="M1310.28,356.77h-8.69v6.28h10.08v2.66h-13.4V345.84h13.31v2.66h-10v5.61h8.69Z"/><path class="cls-3" d="M1331.39,365.71h-3.31l-8.81-14.5-.08,0v14.48h-3.32V345.84h3.32l8.81,14.5.08,0V345.84h3.31Z"/><path class="cls-3" d="M1351.64,359.12l0,.08a6.23,6.23,0,0,1-2,4.91,7.64,7.64,0,0,1-5.45,1.89,7.38,7.38,0,0,1-5.66-2.34,8.44,8.44,0,0,1-2.17-6v-3.79a8.49,8.49,0,0,1,2.15-6,7.21,7.21,0,0,1,5.59-2.36,7.92,7.92,0,0,1,5.54,1.85,6.27,6.27,0,0,1,2,5l0,.08h-3.21a3.83,3.83,0,0,0-4.28-4.24,3.79,3.79,0,0,0-3.23,1.61,6.54,6.54,0,0,0-1.2,4v3.81a6.55,6.55,0,0,0,1.22,4.06,4,4,0,0,0,3.3,1.61,4.19,4.19,0,0,0,3.13-1.1,4.32,4.32,0,0,0,1.06-3.12Z"/><path class="cls-3" d="M1368.32,356.77h-8.69v6.28h10.08v2.66h-13.4V345.84h13.31v2.66h-10v5.61h8.69Z"/></svg>